<?xml version="1.0" encoding="UTF-8" standalone="no"?>
<!DOCTYPE svg PUBLIC "-//W3C//DTD SVG 1.1//EN" "http://www.w3.org/Graphics/SVG/1.1/DTD/svg11.dtd">
<svg width="100%" height="100%" viewBox="0 0 402 560" version="1.1" xmlns="http://www.w3.org/2000/svg" xmlns:xlink="http://www.w3.org/1999/xlink" xml:space="preserve" xmlns:serif="http://www.serif.com/" style="fill-rule:evenodd;clip-rule:evenodd;stroke-linecap:round;">
    <path d="M10.634,300.493C11.398,316.244 27.133,308.956 34.26,304.032C41.025,299.357 43.003,303.243 43.597,294.017C43.986,287.953 44.685,281.889 44.341,275.801C34.111,274.874 22.984,277.31 14.597,283.403C10.277,286.542 2.177,296.561 10.634,300.493M23.558,278.596L30.776,306.197M10.634,300.493C12.924,299.641 15.351,299.036 16.905,296.965" style="fill:rgb(246,210,162);"/>
    <clipPath id="_clip1">
        <path d="M10.634,300.493C11.398,316.244 27.133,308.956 34.26,304.032C41.025,299.357 43.003,303.243 43.597,294.017C43.986,287.953 44.685,281.889 44.341,275.801C34.111,274.874 22.984,277.31 14.597,283.403C10.277,286.542 2.177,296.561 10.634,300.493M23.558,278.596L30.776,306.197M10.634,300.493C12.924,299.641 15.351,299.036 16.905,296.965"/>
    </clipPath>
    <g clip-path="url(#_clip1)">
        <path d="M23.558,278.596L30.776,306.197C22.972,310.56 11.29,314.011 10.634,300.493C12.924,299.641 15.351,299.036 16.905,296.965L10.634,300.493C2.177,296.561 10.277,286.542 14.597,283.403C17.334,281.414 20.363,279.815 23.558,278.596Z" style="fill:white;"/>
    </g>
    <path d="M10.634,300.493C11.398,316.244 27.133,308.956 34.26,304.032C41.025,299.357 43.003,303.243 43.597,294.017C43.986,287.953 44.685,281.889 44.341,275.801C34.111,274.874 22.984,277.31 14.597,283.403C10.277,286.542 2.177,296.561 10.634,300.493M23.558,278.596L30.776,306.197M10.634,300.493C12.924,299.641 15.351,299.036 16.905,296.965" style="fill:none;stroke:black;stroke-width:3px;"/>
    <path d="M46.997,112.853C-13.3,95.897 31.536,19.189 79.956,50.74L46.997,112.853Z" style="fill:rgb(106,215,229);stroke:black;stroke-width:3px;"/>
    <path d="M314.895,44.984C362.622,11.461 405.751,87.095 350.283,106.125L314.895,44.984Z" style="fill:rgb(106,215,229);stroke:black;stroke-width:3px;"/>
    <path d="M325.161,494.343C337.284,501.844 359.443,524.525 341.257,535.523C323.783,551.522 314.003,517.962 298.666,513.312C305.271,504.342 313.643,496.163 325.161,494.343Z" style="fill:rgb(246,210,162);stroke:black;stroke-width:3px;"/>
    <path d="M341.257,535.522C338.561,530.161 337.656,523.904 333.155,519.583" style="fill:none;stroke:black;stroke-width:3px;"/>
    <path d="M108.579,519.975C94.35,522.177 86.341,535.014 74.479,541.533C63.301,548.198 59.025,539.399 58.018,537.613C56.266,536.814 56.413,538.357 53.709,535.634C43.347,519.28 64.506,507.326 75.524,499.202C90.87,496.1 100.487,509.404 108.579,519.975Z" style="fill:rgb(246,210,162);stroke:black;stroke-width:3px;"/>
    <path d="M58.019,537.612C58.561,531.379 63.503,527.205 65.857,521.935" style="fill:none;stroke:black;stroke-width:3px;"/>
    <path d="M49.513,91.667C41.558,87.459 35.722,81.744 40.588,72.543C45.093,64.025 53.462,64.95 61.418,69.158L49.513,91.667Z"/>
    <path d="M337.716,83.667C345.671,79.459 351.507,73.744 346.641,64.543C342.136,56.025 333.767,56.95 325.811,61.158L337.716,83.667Z"/>
    <path d="M392.475,298.493C391.711,314.244 375.976,306.956 368.849,302.032C362.084,297.357 360.106,301.243 359.512,292.017C359.123,285.953 358.424,279.889 358.768,273.801C368.998,272.874 380.125,275.31 388.512,281.403C392.831,284.542 400.932,294.561 392.475,298.493M381.251,277.288L373.097,304.614M392.475,298.493C390.185,297.641 387.758,297.036 386.204,294.965" style="fill:rgb(246,210,162);"/>
    <clipPath id="_clip2">
        <path d="M392.475,298.493C391.711,314.244 375.976,306.956 368.849,302.032C362.084,297.357 360.106,301.243 359.512,292.017C359.123,285.953 358.424,279.889 358.768,273.801C368.998,272.874 380.125,275.31 388.512,281.403C392.831,284.542 400.932,294.561 392.475,298.493M381.251,277.288L373.097,304.614M392.475,298.493C390.185,297.641 387.758,297.036 386.204,294.965"/>
    </clipPath>
    <g clip-path="url(#_clip2)">
        <path d="M381.251,277.288C383.821,278.401 386.265,279.771 388.512,281.403C392.831,284.542 400.932,294.561 392.475,298.493L386.204,294.965C387.758,297.036 390.185,297.641 392.475,298.493C391.84,311.576 380.877,308.764 373.097,304.614L381.251,277.288Z" style="fill:white;"/>
    </g>
    <path d="M392.475,298.493C391.711,314.244 375.976,306.956 368.849,302.032C362.084,297.357 360.106,301.243 359.512,292.017C359.123,285.953 358.424,279.889 358.768,273.801C368.998,272.874 380.125,275.31 388.512,281.403C392.831,284.542 400.932,294.561 392.475,298.493M381.251,277.288L373.097,304.614M392.475,298.493C390.185,297.641 387.758,297.036 386.204,294.965" style="fill:none;stroke:black;stroke-width:3px;"/>
    <g>
        <path d="M195.512,13.124C255.877,13.124 312.465,21.757 341.964,79.753C368.442,144.759 359.026,214.857 363.064,283.559C366.532,342.551 374.221,410.704 346.854,465.371C318.064,522.885 246.124,537.353 186.854,535.234C140.299,533.568 84.06,518.38 57.785,475.845C26.959,425.945 41.553,351.747 43.792,296.223C46.444,230.452 25.977,164.481 47.584,100.122C69.999,33.359 130.451,18.271 195.512,13.124M40.705,225.146L361.76,226.967" style="fill:rgb(106,215,229);"/>
        <clipPath id="_clip3">
            <path d="M195.512,13.124C255.877,13.124 312.465,21.757 341.964,79.753C368.442,144.759 359.026,214.857 363.064,283.559C366.532,342.551 374.221,410.704 346.854,465.371C318.064,522.885 246.124,537.353 186.854,535.234C140.299,533.568 84.06,518.38 57.785,475.845C26.959,425.945 41.553,351.747 43.792,296.223C46.444,230.452 25.977,164.481 47.584,100.122C69.999,33.359 130.451,18.271 195.512,13.124M40.705,225.146L361.76,226.967"/>
        </clipPath>
        <g clip-path="url(#_clip3)">
            <path d="M361.76,226.967C361.861,245.847 361.959,264.755 363.064,283.559C366.532,342.551 374.221,410.704 346.854,465.371C318.064,522.885 246.124,537.353 186.854,535.234C140.299,533.568 84.06,518.38 57.785,475.845C26.959,425.945 41.553,351.747 43.792,296.223C44.747,272.529 42.702,248.808 40.705,225.146L361.76,226.967Z"/>
        </g>
        <path d="M195.512,13.124C255.877,13.124 312.465,21.757 341.964,79.753C368.442,144.759 359.026,214.857 363.064,283.559C366.532,342.551 374.221,410.704 346.854,465.371C318.064,522.885 246.124,537.353 186.854,535.234C140.299,533.568 84.06,518.38 57.785,475.845C26.959,425.945 41.553,351.747 43.792,296.223C46.444,230.452 25.977,164.481 47.584,100.122C69.999,33.359 130.451,18.271 195.512,13.124M40.705,225.146L361.76,226.967" style="fill:none;stroke:black;stroke-width:3px;"/>
    </g>
    <path d="M206.169,94.16C217.007,157.163 319.991,140.505 305.199,76.963C291.935,19.983 202.567,35.755 206.169,94.16" style="fill:white;stroke:black;stroke-width:2.91px;"/>
    <path d="M83.103,104.35C97.15,159.2 184.967,145.157 181.657,90.137C177.691,24.242 69.673,36.957 83.103,104.35" style="fill:white;stroke:black;stroke-width:2.82px;"/>
    <path d="M218.594,169.762C218.64,177.953 220.455,187.149 218.906,195.863C216.815,199.815 212.713,200.233 209.177,201.83C204.287,201.063 200.175,197.852 198.214,193.278C196.959,183.332 198.682,173.702 198.999,163.752L218.594,169.762Z" style="fill:white;stroke:black;stroke-width:3px;"/>
    <g>
        <ellipse cx="107.324" cy="95.404" rx="14.829" ry="16.062"/>
        <ellipse cx="114.069" cy="99.029" rx="3.496" ry="4.082" style="fill:white;"/>
    </g>
    <g>
        <ellipse cx="231.571" cy="91.404" rx="14.582" ry="16.062"/>
        <ellipse cx="238.204" cy="95.029" rx="3.438" ry="4.082" style="fill:white;"/>
    </g>
    <path d="M176.217,168.87C169.747,184.55 179.825,215.905 197.38,192.778C196.125,182.832 197.848,173.202 198.165,163.252L176.217,168.87Z" style="fill:white;stroke:black;stroke-width:3px;"/>
    <g>
        <path d="M178.431,138.673C166.372,139.701 156.515,154.039 162.785,165.382C171.088,180.406 189.621,164.053 201.164,165.585C214.449,165.857 225.334,179.632 236.004,168.075C247.871,155.221 230.895,142.702 217.627,137.105L178.431,138.673Z" style="fill:rgb(246,210,162);stroke:rgb(35,31,32);stroke-width:3px;"/>
        <path d="M176.913,138.045C176.02,117.154 215.851,114.542 220.555,132.029C225.247,149.475 178.874,153.527 176.913,138.045C175.348,125.682 176.913,138.045 176.913,138.045Z"/>
    </g>
    <path d="M129.878,226.304L270.846,226.942C268.185,264.105 246.379,342.87 197.823,375.52C196.45,376.471 130.473,322.234 129.878,226.304Z" style="fill:white;"/>
    <path d="M40.876,225.281L361.652,226.942M129.878,226.304C130.473,322.234 196.45,376.471 197.823,375.52M197.823,375.52C246.379,342.87 268.185,264.105 270.846,226.942" style="fill:none;stroke:black;stroke-width:3px;stroke-linejoin:round;stroke-miterlimit:1.5;"/>
    <circle cx="199.49" cy="278.644" r="1.5"/>
    <circle cx="199.49" cy="300.529" r="1.5"/>
    <circle cx="199.49" cy="322.547" r="1.5"/>
    <path d="M307.407,249.879L322.885,267.232L291.929,267.232L307.407,249.879Z" style="fill:white;"/>
    <path d="M314.422,243.311L328.896,267.171L299.948,267.171L314.422,243.311Z" style="fill:white;stroke:black;stroke-width:3px;stroke-linejoin:round;stroke-miterlimit:1.5;"/>
    <path d="M292.704,266.505L327.589,266.505" style="fill:none;stroke:rgb(49,49,49);stroke-width:3px;stroke-linejoin:round;stroke-miterlimit:1.5;"/>
    <path d="M200.99,226.302L178.129,250.676L130.954,226.302" style="fill:none;stroke:black;stroke-width:3.5px;stroke-linejoin:round;stroke-miterlimit:1.5;"/>
    <path d="M200.99,226.692L223.851,251.067L271.026,226.692" style="fill:none;stroke:black;stroke-width:3.5px;stroke-linejoin:round;stroke-miterlimit:1.5;"/>
    <path d="M202.239,233.771L235.16,220.33L235.16,247.212L202.239,233.771Z"/>
    <path d="M200.941,233.73L168.019,247.171L168.019,220.289L200.941,233.73Z"/>
    <circle cx="201.313" cy="233.888" r="9.365"/>
</svg>
